<svg xmlns="http://www.w3.org/2000/svg" viewBox="0 0 64 64">
	<!--receipt body-->
	<path
		fill="#aec6ff"
		d="
			M15 8
			H38
			a3 3 0 0 1 3 3
			V41
			v3
			h-10
			l-2 -2 -2 2 -2 -2 -2 2 -2 -2 -2 2 -2 -2 -2 2
			v-3
			V11
			a3 3 0 0 1 3 -3
			z
		"
	/>
	<!--receipt details-->
	<g stroke-width="2" stroke-linecap="round" stroke="#004397">
		<line x1="18" y1="14" x2="36" y2="14"   />
		<line x1="18" y1="20" x2="32" y2="20"/>
		<line x1="18" y1="26" x2="34" y2="26"/>
	</g>
	<!--clock-->
	<g stroke-width="3" stroke-linecap="round" stroke="#00201f">
		<circle cx="40" cy="38" r="16" fill="#d9e5e3"/>
		<line x1="40" y1="38" x2="40" y2="28" class="hand"/>
		<line x1="40" y1="38" x2="48" y2="38" class="hand"/>
	</g>
</svg>
